<svg aria-hidden="true" xmlns="http://www.w3.org/2000/svg" xmlns:xlink="http://www.w3.org/1999/xlink">
<symbol viewBox="0 0 16 10" id="arrow" xmlns="http://www.w3.org/2000/svg">
<path fill-rule="evenodd" clip-rule="evenodd" d="M10.2929 0.292893C10.6834 -0.0976311 11.3166 -0.0976311 11.7071 0.292893L15.7071 4.29289C16.0976 4.68342 16.0976 5.31658 15.7071 5.70711L11.7071 9.70711C11.3166 10.0976 10.6834 10.0976 10.2929 9.70711C9.90237 9.31658 9.90237 8.68342 10.2929 8.29289L12.5858 6H1C0.447715 6 0 5.55228 0 5C0 4.44772 0.447715 4 1 4H12.5858L10.2929 1.70711C9.90237 1.31658 9.90237 0.683417 10.2929 0.292893Z"/>
</symbol><symbol viewBox="0 0 7 10" id="b-arrow" xmlns="http://www.w3.org/2000/svg">
<path fill-rule="evenodd" clip-rule="evenodd" d="M1.02851 0.529247C1.28886 0.268897 1.71097 0.268897 1.97132 0.529247L5.97132 4.52925C6.23167 4.7896 6.23167 5.21171 5.97132 5.47206L1.97132 9.47206C1.71097 9.73241 1.28886 9.73241 1.02851 9.47206C0.768165 9.21171 0.768165 8.7896 1.02851 8.52925L4.55711 5.00065L1.02851 1.47206C0.768165 1.21171 0.768165 0.789596 1.02851 0.529247Z"/>
</symbol><symbol viewBox="0 0 13 20" id="facebook" xmlns="http://www.w3.org/2000/svg">
<path fill-rule="evenodd" clip-rule="evenodd" d="M4.75736 1.75736C5.88258 0.632141 7.4087 0 9 0H12C12.5523 0 13 0.447715 13 1V5C13 5.55228 12.5523 6 12 6H9V7H12C12.3079 7 12.5987 7.14187 12.7882 7.38459C12.9777 7.6273 13.0448 7.94379 12.9701 8.24254L11.9701 12.2425C11.8589 12.6877 11.4589 13 11 13H9V19C9 19.5523 8.55228 20 8 20H4C3.44772 20 3 19.5523 3 19V13H1C0.447715 13 0 12.5523 0 12V8C0 7.44772 0.447715 7 1 7H3V6C3 4.4087 3.63214 2.88258 4.75736 1.75736ZM9 2C7.93913 2 6.92172 2.42143 6.17157 3.17157C5.42143 3.92172 5 4.93913 5 6V8C5 8.55228 4.55228 9 4 9H2V11H4C4.55228 11 5 11.4477 5 12V18H7V12C7 11.4477 7.44772 11 8 11H10.2192L10.7192 9H8C7.44772 9 7 8.55228 7 8V6C7 5.46957 7.21071 4.96086 7.58579 4.58579C7.96086 4.21071 8.46957 4 9 4H11V2H9Z"/>
</symbol><symbol viewBox="0 0 20 20" id="icon-blog" xmlns="http://www.w3.org/2000/svg">
<path fill-rule="evenodd" clip-rule="evenodd" d="M2.98816 2.98816C3.30072 2.6756 3.72464 2.5 4.16667 2.5H12.5C12.942 2.5 13.366 2.6756 13.6785 2.98816C13.9911 3.30072 14.1667 3.72464 14.1667 4.16667H15.8333C16.2754 4.16667 16.6993 4.34226 17.0118 4.65482C17.3244 4.96738 17.5 5.39131 17.5 5.83333V15C17.5 15.663 17.2366 16.2989 16.7678 16.7678C16.2989 17.2366 15.663 17.5 15 17.5H5.83333C4.94928 17.5 4.10143 17.1488 3.47631 16.5237C2.85119 15.8986 2.5 15.0507 2.5 14.1667V4.16667C2.5 3.72464 2.6756 3.30072 2.98816 2.98816ZM12.643 15.8333H5.83333C5.39131 15.8333 4.96738 15.6577 4.65482 15.3452C4.34226 15.0326 4.16667 14.6087 4.16667 14.1667L4.16667 4.16667L12.5 4.16667V15C12.5 15.2866 12.5492 15.5682 12.643 15.8333ZM14.1667 5.83333V15C14.1667 15.221 14.2545 15.433 14.4107 15.5893C14.567 15.7455 14.779 15.8333 15 15.8333C15.221 15.8333 15.433 15.7455 15.5893 15.5893C15.7455 15.433 15.8333 15.221 15.8333 15V5.83333H14.1667ZM5.83333 6.66667C5.83333 6.20643 6.20643 5.83333 6.66667 5.83333H10C10.4602 5.83333 10.8333 6.20643 10.8333 6.66667C10.8333 7.1269 10.4602 7.5 10 7.5H6.66667C6.20643 7.5 5.83333 7.1269 5.83333 6.66667ZM5.83333 10C5.83333 9.53976 6.20643 9.16667 6.66667 9.16667H10C10.4602 9.16667 10.8333 9.53976 10.8333 10C10.8333 10.4602 10.4602 10.8333 10 10.8333H6.66667C6.20643 10.8333 5.83333 10.4602 5.83333 10ZM5.83333 13.3333C5.83333 12.8731 6.20643 12.5 6.66667 12.5H10C10.4602 12.5 10.8333 12.8731 10.8333 13.3333C10.8333 13.7936 10.4602 14.1667 10 14.1667H6.66667C6.20643 14.1667 5.83333 13.7936 5.83333 13.3333Z"/>
</symbol><symbol viewBox="0 0 20 20" id="icon-book" xmlns="http://www.w3.org/2000/svg">
<path fill-rule="evenodd" clip-rule="evenodd" d="M3.33329 5.50065V14.5225C4.26275 14.1753 5.25034 13.9954 6.24996 13.9954C7.24958 13.9954 8.23717 14.1753 9.16663 14.5225V5.50065C8.25975 5.05942 7.26257 4.82878 6.24996 4.82878C5.23735 4.82878 4.24017 5.05942 3.33329 5.50065ZM10.8333 5.50065V14.5225C11.7628 14.1753 12.7503 13.9954 13.75 13.9954C14.7496 13.9954 15.7372 14.1753 16.6666 14.5225V5.50065C15.7598 5.05942 14.7626 4.82878 13.75 4.82878C12.7373 4.82878 11.7402 5.05942 10.8333 5.50065ZM9.99996 4.05354C8.83878 3.4684 7.55462 3.16211 6.24996 3.16211C4.78715 3.16211 3.35012 3.54716 2.08329 4.27856C1.82546 4.42742 1.66663 4.70253 1.66663 5.00025V15.8336C1.66663 16.1313 1.82546 16.4064 2.08329 16.5553C2.34113 16.7041 2.65879 16.7041 2.91663 16.5553C3.93009 15.9702 5.07971 15.6621 6.24996 15.6621C7.4202 15.6621 8.56983 15.9702 9.58329 16.5553C9.84113 16.7041 10.1588 16.7041 10.4166 16.5553C11.4301 15.9702 12.5797 15.6621 13.75 15.6621C14.9202 15.6621 16.0698 15.9702 17.0833 16.5553C17.3411 16.7041 17.6588 16.7041 17.9166 16.5553C18.1745 16.4064 18.3333 16.1313 18.3333 15.8336V5.00025C18.3333 4.70253 18.1745 4.42742 17.9166 4.27856C16.6498 3.54716 15.2128 3.16211 13.75 3.16211C12.4453 3.16211 11.1611 3.4684 9.99996 4.05354Z"/>
</symbol><symbol viewBox="0 0 18 12" id="icon-video" xmlns="http://www.w3.org/2000/svg">
<path fill-rule="evenodd" clip-rule="evenodd" d="M3.16663 1.83268C2.70639 1.83268 2.33329 2.20578 2.33329 2.66602V9.33268C2.33329 9.79292 2.70639 10.166 3.16663 10.166H9.83329C10.2935 10.166 10.6666 9.79292 10.6666 9.33268V2.66602C10.6666 2.20578 10.2935 1.83268 9.83329 1.83268H3.16663ZM12.3333 2.98455V2.66602C12.3333 1.2853 11.214 0.166016 9.83329 0.166016H3.16663C1.78591 0.166016 0.666626 1.2853 0.666626 2.66602V9.33268C0.666626 10.7134 1.78591 11.8327 3.16663 11.8327H9.83329C11.214 11.8327 12.3333 10.7134 12.3333 9.33268V9.01434L14.9215 10.3082C15.1755 10.4351 15.4579 10.4951 15.7416 10.4823C16.0253 10.4695 16.301 10.3845 16.5426 10.2352C16.7842 10.086 16.9837 9.87743 17.1221 9.62944C17.2604 9.38144 17.3331 9.10221 17.3333 8.81823V3.18111C17.3331 2.89713 17.2604 2.61745 17.1221 2.36946C16.9837 2.12146 16.7842 1.91294 16.5426 1.76368C16.301 1.61442 16.0253 1.52936 15.7416 1.51658C15.4579 1.5038 15.1757 1.56373 14.9216 1.69067L12.3333 2.98455ZM12.3333 4.84786V7.15104L15.6666 8.81734V3.18156L12.3333 4.84786Z"/>
</symbol><symbol viewBox="0 0 18 18" id="instagram" xmlns="http://www.w3.org/2000/svg">
<path fill-rule="evenodd" clip-rule="evenodd" d="M5 2C3.34315 2 2 3.34315 2 5V13C2 14.6569 3.34315 16 5 16H13C14.6569 16 16 14.6569 16 13V5C16 3.34315 14.6569 2 13 2H5ZM0 5C0 2.23858 2.23858 0 5 0H13C15.7614 0 18 2.23858 18 5V13C18 15.7614 15.7614 18 13 18H5C2.23858 18 0 15.7614 0 13V5ZM9 7C7.89543 7 7 7.89543 7 9C7 10.1046 7.89543 11 9 11C10.1046 11 11 10.1046 11 9C11 7.89543 10.1046 7 9 7ZM5 9C5 6.79086 6.79086 5 9 5C11.2091 5 13 6.79086 13 9C13 11.2091 11.2091 13 9 13C6.79086 13 5 11.2091 5 9Z"/>
</symbol><symbol viewBox="0 0 20 20" id="language" xmlns="http://www.w3.org/2000/svg">
<path fill-rule="evenodd" clip-rule="evenodd" d="M9.62061 0.00719839C9.7465 0.00250303 9.87297 0.000134521 10 0.000134521C10.127 0.000134521 10.2535 0.00250279 10.3794 0.00719767C10.4959 -0.0068875 10.6135 -0.000155156 10.7265 0.0261202C15.9102 0.398281 20 4.72159 20 10.0001C20 15.2787 15.9102 19.602 10.7265 19.9741C10.6135 20.0004 10.4959 20.0072 10.3794 19.9931C10.2535 19.9978 10.127 20.0001 10 20.0001C9.87297 20.0001 9.7465 19.9978 9.62062 19.9931C9.50403 20.0072 9.38648 20.0004 9.27348 19.9741C4.08979 19.602 0 15.2787 0 10.0001C0 4.72161 4.08979 0.398301 9.27348 0.0261227C9.38649 -0.000155156 9.50403 -0.0068881 9.62061 0.00719839ZM12.3753 17.6416C14.3116 17.0404 15.9329 15.7234 16.9297 14.0001H13.6277C13.3421 15.2535 12.9225 16.4745 12.3753 17.6416ZM11.5697 14.0001C11.2202 15.3537 10.6937 16.6603 9.99999 17.8851C9.30632 16.6603 8.77974 15.3537 8.43025 14.0001H11.5697ZM13.9663 12.0001H17.748C17.9125 11.3609 18 10.6907 18 10.0001C18 9.30954 17.9125 8.63937 17.748 8.00013H13.9663C14.0404 8.66215 14.0778 9.3298 14.0778 10.0001C14.0778 10.6705 14.0404 11.3381 13.9663 12.0001ZM11.9523 8.00013C12.0356 8.66128 12.0778 9.3292 12.0778 10.0001C12.0778 10.6711 12.0356 11.339 11.9523 12.0001H8.04766C7.96437 11.339 7.92218 10.6711 7.92218 10.0001C7.92218 9.3292 7.96437 8.66128 8.04766 8.00013H11.9523ZM13.6277 6.00013H16.9297C15.9329 4.27682 14.3116 2.95988 12.3753 2.35866C12.9225 3.52579 13.3421 4.74677 13.6277 6.00013ZM11.5697 6.00013H8.43025C8.77974 4.64656 9.30632 3.33993 9.99999 2.11517C10.6937 3.33993 11.2202 4.64656 11.5697 6.00013ZM7.62469 2.35867C5.68839 2.9599 4.06714 4.27683 3.07026 6.00013H6.37225C6.65792 4.74677 7.07745 3.52579 7.62469 2.35867ZM6.03363 8.00013H2.25203C2.08751 8.63937 2 9.30954 2 10.0001C2 10.6907 2.08751 11.3609 2.25204 12.0001H6.03363C5.95961 11.3381 5.92218 10.6705 5.92218 10.0001C5.92218 9.3298 5.95961 8.66215 6.03363 8.00013ZM6.37225 14.0001C6.65792 15.2535 7.07746 16.4745 7.62469 17.6416C5.68839 17.0404 4.06714 15.7234 3.07026 14.0001H6.37225Z"/>
</symbol><symbol viewBox="0 0 18 18" id="linkedin" xmlns="http://www.w3.org/2000/svg">
<path fill-rule="evenodd" clip-rule="evenodd" d="M3 2C2.44772 2 2 2.44772 2 3V15C2 15.5523 2.44772 16 3 16H15C15.5523 16 16 15.5523 16 15V3C16 2.44772 15.5523 2 15 2H3ZM0 3C0 1.34315 1.34315 0 3 0H15C16.6569 0 18 1.34315 18 3V15C18 16.6569 16.6569 18 15 18H3C1.34315 18 0 16.6569 0 15V3ZM5 4C5.55228 4 6 4.44772 6 5V5.01C6 5.56228 5.55228 6.01 5 6.01C4.44772 6.01 4 5.56228 4 5.01V5C4 4.44772 4.44772 4 5 4ZM5 7C5.55228 7 6 7.44772 6 8V13C6 13.5523 5.55228 14 5 14C4.44772 14 4 13.5523 4 13V8C4 7.44772 4.44772 7 5 7ZM8 13C8 13.5523 8.44772 14 9 14C9.55229 14 10 13.5523 10 13V10C10 9.73478 10.1054 9.48043 10.2929 9.29289C10.4804 9.10536 10.7348 9 11 9C11.2652 9 11.5196 9.10536 11.7071 9.29289C11.8946 9.48043 12 9.73478 12 10V13C12 13.5523 12.4477 14 13 14C13.5523 14 14 13.5523 14 13V10C14 9.20435 13.6839 8.44129 13.1213 7.87868C12.5587 7.31607 11.7957 7 11 7C10.5483 7 10.1071 7.10187 9.70711 7.29289C9.52614 7.11193 9.27614 7 9 7C8.44772 7 8 7.44772 8 8V13Z"/>
</symbol><symbol viewBox="0 0 15 18" id="play" xmlns="http://www.w3.org/2000/svg">
<path fill-rule="evenodd" clip-rule="evenodd" d="M0.512197 0.127046C0.828453 -0.0496759 1.21556 -0.0415291 1.5241 0.148342L14.5241 8.14834C14.8198 8.33034 15 8.65274 15 9C15 9.34726 14.8198 9.66966 14.5241 9.85166L1.5241 17.8517C1.21556 18.0415 0.828453 18.0497 0.512197 17.873C0.195942 17.6962 0 17.3623 0 17V1C0 0.637718 0.195942 0.303768 0.512197 0.127046ZM2 2.78956V15.2104L12.092 9L2 2.78956Z"/>
</symbol><symbol viewBox="0 0 22 19" id="twitter" xmlns="http://www.w3.org/2000/svg">
<path fill-rule="evenodd" clip-rule="evenodd" d="M18.2814 1.87973C18.367 1.85607 18.451 1.83306 18.5336 1.81043C19.2554 1.61271 19.8715 1.44394 20.5244 1.12874C20.7014 1.03289 20.9084 0.989711 21.1214 1.01575C21.6231 1.07707 22.0001 1.503 22.0001 2.00836V2.00936C22.0001 2.10124 21.9875 2.19119 21.9636 2.27716C21.771 3.02827 21.2635 4.06034 20.8659 4.84082C20.7632 5.04239 20.6687 5.22514 20.5821 5.3927C20.4832 5.58418 20.3945 5.75581 20.3154 5.913C20.2571 6.02899 20.213 6.11972 20.182 6.18717C20.1742 7.48901 19.9951 8.78442 19.6492 10.04L19.6478 10.0448C18.4203 14.4145 15.2065 17.3456 11.3131 18.4767L11.3129 18.4767C7.8769 19.4741 3.99812 18.7723 0.521531 16.8774C0.113735 16.6551 -0.0873581 16.1814 0.036058 15.7336C0.159474 15.2859 0.574912 14.9821 1.039 15.0001C2.44502 15.0548 3.6941 14.7018 4.94842 14.0579C3.65017 13.2557 2.71768 12.3207 2.07835 11.3106C1.19621 9.91684 0.919044 8.45424 0.931903 7.15186C0.944686 5.85718 1.24338 4.7044 1.53097 3.88524C1.67574 3.47288 1.82037 3.13753 1.93066 2.90187C1.98588 2.78385 2.03275 2.69029 2.06707 2.62399C2.08423 2.59083 2.09829 2.56444 2.1087 2.54517L2.12155 2.52164L2.12581 2.51395L2.12739 2.51113L2.12803 2.50999C2.12831 2.50949 2.12858 2.50901 3.0001 2.99936L2.12858 2.50901C2.29619 2.21109 2.60438 2.01944 2.9457 2.00084C3.28703 1.98224 3.61421 2.13929 3.8132 2.41724C5.29896 4.49251 7.49453 5.7626 9.9998 5.97193C9.98829 3.86667 11.3127 2.05856 13.2694 1.32586C14.8937 0.717663 16.8162 0.647187 18.2814 1.87973ZM3.3005 4.90562C3.10579 5.54169 2.94013 6.32837 2.93181 7.17161C2.92191 8.17336 3.13337 9.23781 3.7683 10.241C4.40179 11.2419 5.50381 12.2561 7.39974 13.0827C7.73518 13.2289 7.96396 13.5467 7.99621 13.9112C8.02847 14.2757 7.85905 14.6287 7.5545 14.8316C6.60281 15.4656 5.62154 16.0197 4.56931 16.4099C6.72357 17.0392 8.85922 17.1064 10.7551 16.5561M3.3005 4.90562C5.314 6.94734 8.03725 8.07547 11.0257 7.99903C11.5678 7.98516 12.0001 7.54168 12.0001 6.99936V5.99936H12.0002L12 5.98564C11.9831 4.75447 12.7462 3.65739 13.9708 3.19886C15.3614 2.67813 16.5144 2.83054 17.2517 3.66258C17.509 3.95295 17.911 4.06828 18.2831 3.95847C18.4914 3.89702 18.7106 3.83719 18.938 3.77515C19.0242 3.75162 19.1116 3.72777 19.2 3.7034C19.1617 3.77965 19.1229 3.85623 19.0838 3.9329C18.9951 4.10708 18.9026 4.28625 18.8145 4.45684C18.7078 4.66338 18.6077 4.85733 18.5286 5.01459C18.454 5.16299 18.384 5.30627 18.3312 5.42683C18.3052 5.48615 18.2762 5.55591 18.2521 5.62691C18.2516 5.62813 18.2512 5.62954 18.2506 5.63111C18.2363 5.67282 18.1811 5.83393 18.1821 6.0269C18.1886 7.20239 18.0337 8.37321 17.7216 9.50654C16.6906 13.1733 14.0211 15.6072 10.7553 16.556"/>
</symbol>
</svg>