<svg width="430" height="430" viewBox="0 0 430 430" fill="none" xmlns="http://www.w3.org/2000/svg">
<g clip-path="url(#clip0_266_2167)">
<path d="M369.026 271.726H254.491V380.86H369.026V271.726Z" fill="#1F2025" stroke="white" stroke-width="3" stroke-miterlimit="10"/>
<path d="M254.491 380.86H12.9688L195.65 146.475L278.279 183.146L254.491 380.86Z" fill="#205BF1" stroke="white" stroke-width="3" stroke-miterlimit="10"/>
<path d="M195.65 146.475C205.781 123.651 232.475 113.365 255.3 123.496C278.124 133.627 288.41 160.321 278.279 183.146L195.65 146.475Z" fill="#1F2025" stroke="white" stroke-width="3" stroke-miterlimit="10" stroke-linecap="round" stroke-linejoin="round"/>
<path d="M250.742 116.014L288.238 78.5525L297.766 88.3565L260.288 125.801L250.742 116.014Z" fill="#1F2025" stroke="white" stroke-width="3" stroke-miterlimit="10"/>
<path d="M383.078 152.375L296.562 78.5525L287.532 88.9069L373.739 162.42L383.078 152.375Z" fill="#1F2025" stroke="white" stroke-width="3" stroke-miterlimit="10"/>
<path d="M345.479 262.747L384.764 159.117L371.348 154.68L331.702 260.133L345.479 262.747Z" fill="#1F2025" stroke="white" stroke-width="3" stroke-miterlimit="10"/>
<path d="M396.924 271.726H287.532V270.848C287.532 262.575 294.24 255.85 302.531 255.85H381.943C390.216 255.85 396.942 262.558 396.942 270.848V271.726H396.924Z" fill="#1F2025" stroke="white" stroke-width="3" stroke-miterlimit="10"/>
<path d="M313.281 250.828H308.258V255.85H313.281V250.828Z" fill="#1F2025" stroke="white" stroke-width="3" stroke-miterlimit="10"/>
<path d="M375.906 172.757C384.664 172.757 391.764 165.657 391.764 156.898C391.764 148.14 384.664 141.04 375.906 141.04C367.148 141.04 360.048 148.14 360.048 156.898C360.048 165.657 367.148 172.757 375.906 172.757Z" fill="#1F2025" stroke="white" stroke-width="3" stroke-miterlimit="10"/>
<path d="M375.906 163.796C379.715 163.796 382.803 160.708 382.803 156.898C382.803 153.089 379.715 150.001 375.906 150.001C372.097 150.001 369.009 153.089 369.009 156.898C369.009 160.708 372.097 163.796 375.906 163.796Z" fill="white" stroke="white" stroke-width="3" stroke-miterlimit="10"/>
<path d="M292.4 99.8975C301.158 99.8975 308.258 92.7974 308.258 84.0391C308.258 75.2807 301.158 68.1807 292.4 68.1807C283.642 68.1807 276.542 75.2807 276.542 84.0391C276.542 92.7974 283.642 99.8975 292.4 99.8975Z" fill="#1F2025" stroke="white" stroke-width="3" stroke-miterlimit="10"/>
<path d="M292.4 90.9362C296.209 90.9362 299.297 87.8483 299.297 84.039C299.297 80.2298 296.209 77.1418 292.4 77.1418C288.591 77.1418 285.503 80.2298 285.503 84.039C285.503 87.8483 288.591 90.9362 292.4 90.9362Z" fill="white" stroke="white" stroke-width="3" stroke-miterlimit="10"/>
<path d="M256.142 136.155C264.901 136.155 272.001 129.055 272.001 120.297C272.001 111.539 264.901 104.438 256.142 104.438C247.384 104.438 240.284 111.539 240.284 120.297C240.284 129.055 247.384 136.155 256.142 136.155Z" fill="#1F2025" stroke="white" stroke-width="3" stroke-miterlimit="10"/>
<path d="M256.142 127.194C259.952 127.194 263.04 124.106 263.04 120.297C263.04 116.488 259.952 113.4 256.142 113.4C252.333 113.4 249.245 116.488 249.245 120.297C249.245 124.106 252.333 127.194 256.142 127.194Z" fill="white" stroke="white" stroke-width="3" stroke-miterlimit="10"/>
<path d="M361.682 251.774H322.775V255.85H361.682V251.774Z" fill="white" stroke="white" stroke-width="3" stroke-miterlimit="10"/>
<path d="M308.258 364.898H288.96V373.687H308.258V364.898Z" fill="#1F2025" stroke="#1F2025" stroke-width="3" stroke-miterlimit="10"/>
<path d="M69.9715 224.228L69.5052 223.022L69.0388 224.228L67.4158 228.425L63.2188 230.048L62.0129 230.514L63.2188 230.981L67.4158 232.604L69.0388 236.801L69.5061 238.009L69.9717 236.8L71.5946 232.587L75.7899 230.981L77.0035 230.517L75.7915 230.048L71.5946 228.425L69.9715 224.228Z" fill="white" stroke="white"/>
<path d="M86.3459 48.96L85.8796 47.7541L85.4132 48.96L83.7902 53.157L79.5932 54.78L78.3873 55.2464L79.5932 55.7127L83.7902 57.3358L85.4132 61.5327L85.8796 62.7386L86.3459 61.5327L87.9689 57.3358L92.1659 55.7127L93.3718 55.2464L92.1659 54.78L87.9689 53.157L86.3459 48.96Z" fill="white" stroke="white"/>
<path d="M174.496 86.7828L174.027 85.5708L173.563 86.7844L171.957 90.9798L167.744 92.6025L166.535 93.0682L167.743 93.5355L171.94 95.1585L173.563 99.3555L174.03 100.561L174.496 99.3555L176.119 95.1585L180.316 93.5355L181.522 93.0691L180.316 92.6028L176.119 90.9797L174.496 86.7828Z" fill="white" stroke="white"/>
<path d="M323.242 182.966L322.773 181.748L322.308 182.967L320.702 187.179L316.489 188.802L315.274 189.27L316.49 189.736L320.686 191.342L322.309 195.554L322.775 196.766L323.242 195.554L324.865 191.342L329.06 189.736L330.274 189.271L329.062 188.802L324.865 187.179L323.242 182.966Z" fill="white" stroke="white"/>
<path d="M388.395 55.0666L387.929 53.8554L387.462 55.0666L385.839 59.2793L381.644 60.8854L380.43 61.35L381.642 61.8187L385.839 63.4417L387.462 67.6387L387.929 68.8446L388.395 67.6387L390.018 63.4417L394.215 61.8187L395.427 61.35L394.214 60.8854L390.018 59.2793L388.395 55.0666Z" fill="white" stroke="white"/>
<path d="M247.08 196.088L246.612 194.876L246.147 196.09L244.541 200.285L240.328 201.908L239.119 202.374L240.328 202.841L244.525 204.464L246.148 208.661L246.615 209.869L247.081 208.661L248.703 204.448L252.899 202.842L254.112 202.377L252.9 201.908L248.703 200.285L247.08 196.088Z" fill="#1F2025" stroke="#1F2025"/>
<path d="M180.496 207.3L180.027 206.088L179.563 207.302L177.957 211.497L173.744 213.12L172.535 213.586L173.743 214.053L177.94 215.676L179.563 219.873L180.03 221.079L180.496 219.873L182.119 215.676L186.316 214.053L187.522 213.587L186.316 213.12L182.119 211.497L180.496 207.3Z" fill="#1F2025" stroke="#1F2025"/>
<path d="M67.8664 348.491L67.4016 347.272L66.9326 348.489L65.3095 352.703L61.1129 354.326L59.9008 354.794L61.1145 355.259L65.3098 356.865L66.9326 361.078L67.4016 362.295L67.8664 361.076L69.4722 356.865L73.6834 355.259L74.9023 354.794L73.6849 354.325L69.4726 352.703L67.8664 348.491Z" fill="#1F2025" stroke="#1F2025"/>
<path d="M139.318 331.106L138.853 329.887L138.384 331.104L136.761 335.318L132.547 336.941L131.33 337.41L132.549 337.874L136.761 339.48L138.384 343.693L138.853 344.91L139.318 343.691L140.923 339.48L145.135 337.874L146.353 337.41L145.136 336.941L140.924 335.318L139.318 331.106Z" fill="#1F2025" stroke="#1F2025"/>
<path d="M171.381 261.206L176.558 274.691L190.06 279.885L176.558 285.08L171.381 298.564L166.169 285.08L152.684 279.885L166.186 274.691L171.381 261.206Z" stroke="#1F2025" stroke-width="3" stroke-miterlimit="10" stroke-linecap="round" stroke-linejoin="round"/>
</g>
<defs>
<clipPath id="clip0_266_2167">
<rect width="430" height="430" fill="white"/>
</clipPath>
</defs>
</svg>
