<svg width="430" height="430" viewBox="0 0 430 430" fill="none" xmlns="http://www.w3.org/2000/svg">
<path d="M181.225 265.942C172.541 265.942 164.38 260.536 158.827 251.083C153.964 242.824 151.281 231.992 151.281 220.619C151.281 209.227 153.964 198.414 158.827 190.155C164.38 180.721 172.56 175.295 181.225 175.295C189.908 175.295 198.069 180.702 203.622 190.155C208.485 198.414 211.168 209.246 211.168 220.619C211.168 231.992 208.485 242.824 203.622 251.083C198.069 260.517 189.908 265.942 181.225 265.942Z" fill="#1F2025" stroke="white" stroke-width="3" stroke-miterlimit="10"/>
<path d="M181.225 258C193.388 258 203.249 241.264 203.249 220.619C203.249 199.974 193.388 183.238 181.225 183.238C169.061 183.238 159.2 199.974 159.2 220.619C159.2 241.264 169.061 258 181.225 258Z" stroke="white" stroke-width="3" stroke-miterlimit="10"/>
<path d="M183.032 175.37L312.459 186.314C312.459 186.314 324.962 195.095 324.962 220.619C324.962 246.142 312.459 254.905 312.459 254.905L183.032 265.868" stroke="white" stroke-width="3" stroke-miterlimit="10"/>
<path d="M315.943 189.838L373.446 194.704C373.446 194.704 382.893 201.322 382.893 220.619C382.893 239.915 373.446 246.515 373.446 246.515L315.943 251.381" stroke="white" stroke-width="3" stroke-miterlimit="10"/>
<path d="M380.191 204.641L388.073 205.312C388.073 205.312 393.644 209.228 393.644 220.619C393.644 232.01 388.073 235.926 388.073 235.926L380.191 236.597" stroke="white" stroke-width="3" stroke-miterlimit="10"/>
<path d="M115.989 265.942C107.306 265.942 99.1446 260.536 93.5919 251.083C88.7286 242.824 86.0454 231.992 86.0454 220.619C86.0454 209.227 88.7286 198.414 93.5919 190.155C99.1446 180.721 107.325 175.295 115.989 175.295C124.672 175.295 132.834 180.702 138.386 190.155C143.25 198.414 145.933 209.246 145.933 220.619C145.933 231.992 143.25 242.824 138.386 251.083C132.815 260.517 124.654 265.942 115.989 265.942Z" fill="#1F2025" stroke="white" stroke-width="3" stroke-miterlimit="10"/>
<path d="M115.989 258C128.153 258 138.014 241.264 138.014 220.619C138.014 199.974 128.153 183.238 115.989 183.238C103.825 183.238 93.9646 199.974 93.9646 220.619C93.9646 241.264 103.825 258 115.989 258Z" stroke="white" stroke-width="3" stroke-miterlimit="10"/>
<path d="M168.181 261.598L117.778 265.868" stroke="white" stroke-width="3" stroke-miterlimit="10"/>
<path d="M117.778 175.37L167.902 179.602" stroke="white" stroke-width="3" stroke-miterlimit="10"/>
<path d="M216.606 309.7L219.103 316.188L225.606 318.687L219.103 321.185L216.606 327.692L214.109 321.204L207.625 318.687L214.109 316.188L216.606 309.7Z" fill="#F12052"/>
<path d="M65.8533 130.334L68.3502 136.841L74.8532 139.339L68.3502 141.837L65.8533 148.344L63.3565 141.837L56.8721 139.339L63.3565 136.841L65.8533 130.334Z" fill="#F12052"/>
<path d="M239.845 121.637L242.342 128.126L248.826 130.642L242.342 133.141L239.845 139.629L237.329 133.141L230.845 130.642L237.348 128.126L239.845 121.637Z" fill="#F12052"/>
<path d="M382.893 283.395L385.39 289.902L391.874 292.4L385.39 294.898L382.893 301.405L380.396 294.898L373.893 292.4L380.396 289.902L382.893 283.395Z" fill="#F12052"/>
<path d="M328.871 324.894H327.344V392.982H328.871V324.894Z" fill="white"/>
<path d="M362.142 359.7V358.172H294.093V359.7H362.142Z" fill="white"/>
<path d="M304.583 334.331L303.503 335.412L351.62 383.557L352.701 382.476L304.583 334.331Z" fill="white"/>
<path d="M352.711 335.398L351.63 334.317L303.513 382.462L304.593 383.543L352.711 335.398Z" fill="white"/>
<path d="M328.108 365.016C331.463 365.016 334.182 362.295 334.182 358.938C334.182 355.581 331.463 352.86 328.108 352.86C324.753 352.86 322.033 355.581 322.033 358.938C322.033 362.295 324.753 365.016 328.108 365.016Z" fill="white"/>
<path d="M248.863 47.6963V78.5707C248.863 81.5351 251.267 83.9588 254.248 83.9588H315.85C318.813 83.9588 321.235 86.3638 321.235 89.3469V124.136C321.235 127.101 323.639 129.525 326.62 129.525H386.955" stroke="white" stroke-width="3" stroke-miterlimit="10"/>
<path d="M248.863 50.2505C250.273 50.2505 251.416 49.107 251.416 47.6963C251.416 46.2857 250.273 45.1421 248.863 45.1421C247.453 45.1421 246.311 46.2857 246.311 47.6963C246.311 49.107 247.453 50.2505 248.863 50.2505Z" fill="white"/>
<path d="M386.918 132.079C388.328 132.079 389.471 130.935 389.471 129.525C389.471 128.114 388.328 126.97 386.918 126.97C385.508 126.97 384.365 128.114 384.365 129.525C384.365 130.935 385.508 132.079 386.918 132.079Z" fill="white"/>
<path d="M18.8416 307.173H42.9345C46.158 307.173 48.7667 309.783 48.7667 313.009V332.977C48.7667 336.202 51.3753 338.812 54.5989 338.812H115.288C118.511 338.812 121.12 341.422 121.12 344.648V378.542C121.12 381.768 123.729 384.378 126.952 384.378H228.634" stroke="white" stroke-width="3" stroke-miterlimit="10"/>
<path d="M18.8416 309.728C20.2514 309.728 21.3943 308.584 21.3943 307.173C21.3943 305.763 20.2514 304.619 18.8416 304.619C17.4317 304.619 16.2888 305.763 16.2888 307.173C16.2888 308.584 17.4317 309.728 18.8416 309.728Z" fill="white"/>
<path d="M228.616 386.914C230.026 386.914 231.169 385.77 231.169 384.359C231.169 382.949 230.026 381.805 228.616 381.805C227.206 381.805 226.063 382.949 226.063 384.359C226.063 385.77 227.206 386.914 228.616 386.914Z" fill="white"/>
</svg>
