<svg width="430" height="430" viewBox="0 0 430 430" fill="none" xmlns="http://www.w3.org/2000/svg">
<path d="M261.769 237.068H296.503C299.266 237.068 301.496 234.838 301.496 232.075V214.334V197.607C301.496 194.844 299.266 192.614 296.503 192.614H261.769V237.068Z" fill="#205BF1" stroke="#205BF1" stroke-width="2" stroke-miterlimit="10"/>
<path d="M261.768 237.067H296.503C299.266 237.067 301.496 234.837 301.496 232.074V214.333V197.606C301.496 194.843 299.266 192.613 296.503 192.613H261.768V237.067Z" stroke="#205BF1" stroke-width="2" stroke-miterlimit="10"/>
<path d="M281.624 241.077C291.266 241.077 299.083 233.26 299.083 223.618C299.083 213.976 291.266 206.159 281.624 206.159C271.982 206.159 264.165 213.976 264.165 223.618C264.165 233.26 271.982 241.077 281.624 241.077Z" fill="#EFEFEF" stroke="#205BF1" stroke-width="2" stroke-miterlimit="10"/>
<path d="M261.769 192.614H125.177C122.414 192.614 120.184 194.844 120.184 197.607V214.334V232.075C120.184 234.838 122.414 237.068 125.177 237.068H261.769V192.614Z" fill="#EFEFEF" stroke="#205BF1" stroke-width="2" stroke-miterlimit="10"/>
<path d="M133.249 206.91C135.143 206.91 136.678 205.375 136.678 203.481C136.678 201.588 135.143 200.053 133.249 200.053C131.356 200.053 129.821 201.588 129.821 203.481C129.821 205.375 131.356 206.91 133.249 206.91Z" stroke="#205BF1" stroke-width="2" stroke-miterlimit="10"/>
<path d="M145.115 206.91C147.009 206.91 148.544 205.375 148.544 203.481C148.544 201.588 147.009 200.053 145.115 200.053C143.222 200.053 141.687 201.588 141.687 203.481C141.687 205.375 143.222 206.91 145.115 206.91Z" stroke="#205BF1" stroke-width="2" stroke-miterlimit="10"/>
<path d="M156.981 206.91C158.875 206.91 160.41 205.375 160.41 203.481C160.41 201.588 158.875 200.053 156.981 200.053C155.088 200.053 153.553 201.588 153.553 203.481C153.553 205.375 155.088 206.91 156.981 206.91Z" stroke="#205BF1" stroke-width="2" stroke-miterlimit="10"/>
<path d="M255.047 184.176H289.781C292.544 184.176 294.774 181.946 294.774 179.183V161.441V144.714C294.774 141.952 292.544 139.721 289.781 139.721H255.047V184.176Z" fill="#EFEFEF" stroke="#1F2025" stroke-width="2" stroke-miterlimit="10"/>
<path d="M255.046 139.721H118.47C115.708 139.721 113.477 141.952 113.477 144.714V161.458V179.199C113.477 181.962 115.708 184.192 118.47 184.192H255.062V139.721H255.046Z" fill="#EFEFEF" stroke="#1F2025" stroke-width="2" stroke-miterlimit="10"/>
<path d="M126.542 154.003C128.436 154.003 129.971 152.468 129.971 150.575C129.971 148.681 128.436 147.146 126.542 147.146C124.649 147.146 123.114 148.681 123.114 150.575C123.114 152.468 124.649 154.003 126.542 154.003Z" fill="#1F2025" stroke="#1F2025" stroke-width="2" stroke-miterlimit="10"/>
<path d="M138.393 154.003C140.286 154.003 141.821 152.468 141.821 150.575C141.821 148.681 140.286 147.146 138.393 147.146C136.499 147.146 134.964 148.681 134.964 150.575C134.964 152.468 136.499 154.003 138.393 154.003Z" fill="#1F2025" stroke="#1F2025" stroke-width="2" stroke-miterlimit="10"/>
<path d="M150.259 154.003C152.152 154.003 153.687 152.468 153.687 150.575C153.687 148.681 152.152 147.146 150.259 147.146C148.365 147.146 146.83 148.681 146.83 150.575C146.83 152.468 148.365 154.003 150.259 154.003Z" fill="#1F2025" stroke="#1F2025" stroke-width="2" stroke-miterlimit="10"/>
<path d="M240.198 290.277H274.933C277.696 290.277 279.926 288.047 279.926 285.284V267.542V250.799C279.926 248.036 277.696 245.806 274.933 245.806H240.198V290.277Z" fill="#EFEFEF" stroke="#1F2025" stroke-width="2" stroke-miterlimit="10"/>
<path d="M240.198 245.824H103.623C100.86 245.824 98.6295 248.054 98.6295 250.817V267.56V285.302C98.6295 288.065 100.86 290.295 103.623 290.295H240.214V245.824H240.198Z" fill="#EFEFEF" stroke="#1F2025" stroke-width="2" stroke-miterlimit="10"/>
<path d="M111.696 260.121C113.59 260.121 115.125 258.586 115.125 256.692C115.125 254.799 113.59 253.264 111.696 253.264C109.802 253.264 108.267 254.799 108.267 256.692C108.267 258.586 109.802 260.121 111.696 260.121Z" fill="#1F2025" stroke="#1F2025" stroke-width="2" stroke-miterlimit="10"/>
<path d="M123.562 260.121C125.455 260.121 126.99 258.586 126.99 256.692C126.99 254.799 125.455 253.264 123.562 253.264C121.668 253.264 120.133 254.799 120.133 256.692C120.133 258.586 121.668 260.121 123.562 260.121Z" fill="#1F2025" stroke="#1F2025" stroke-width="2" stroke-miterlimit="10"/>
<path d="M135.412 260.121C137.306 260.121 138.841 258.586 138.841 256.692C138.841 254.799 137.306 253.264 135.412 253.264C133.519 253.264 131.984 254.799 131.984 256.692C131.984 258.586 133.519 260.121 135.412 260.121Z" fill="#1F2025" stroke="#1F2025" stroke-width="2" stroke-miterlimit="10"/>
<path d="M314.457 233.078L299.836 229.157L285.205 225.237L289.124 239.862L293.044 254.488L300.222 244.741L307.433 251.955L311.925 247.462L304.703 240.248L314.457 233.078Z" fill="#1F2025"/>
<path d="M352.618 263.268C360.697 263.268 367.246 256.719 367.246 248.64C367.246 240.561 360.697 234.012 352.618 234.012C344.539 234.012 337.99 240.561 337.99 248.64C337.99 256.719 344.539 263.268 352.618 263.268Z" fill="#EFEFEF" stroke="#205BF1" stroke-width="2" stroke-miterlimit="10"/>
<path d="M352.619 248.641C361.525 250.304 359.439 261.578 359.439 261.578" stroke="#205BF1" stroke-width="2" stroke-miterlimit="10"/>
<path d="M352.619 248.641C358.509 241.764 367.247 249.205 367.247 249.205" stroke="#205BF1" stroke-width="2" stroke-miterlimit="10"/>
<path d="M352.622 248.64C349.606 240.1 360.429 236.266 360.429 236.266" stroke="#205BF1" stroke-width="2" stroke-miterlimit="10"/>
<path d="M352.618 248.642C343.711 246.979 345.797 235.705 345.797 235.705" stroke="#205BF1" stroke-width="2" stroke-miterlimit="10"/>
<path d="M352.618 248.644C346.727 255.521 337.99 248.08 337.99 248.08" stroke="#205BF1" stroke-width="2" stroke-miterlimit="10"/>
<path d="M352.618 248.641C355.634 257.181 344.811 261.014 344.811 261.014" stroke="#205BF1" stroke-width="2" stroke-miterlimit="10"/>
<path d="M335.111 175.607L336.748 179.844L340.972 181.458L336.748 183.092L335.111 187.308L333.494 183.092L329.271 181.458L333.494 179.844L335.111 175.607Z" fill="#1F2025"/>
<path d="M195.439 112.285L197.052 116.521L201.289 118.135L197.052 119.769L195.439 123.985L193.805 119.769L189.588 118.135L193.805 116.521L195.439 112.285Z" fill="#1F2025"/>
<path d="M77.1063 191.884L78.7202 196.108L82.9567 197.744L78.7202 199.361L77.1063 203.585L75.4723 199.361L71.256 197.744L75.4723 196.108L77.1063 191.884Z" fill="#1F2025"/>
<path d="M227.993 308.065L229.627 312.282L233.843 313.916L229.627 315.53L227.993 319.766L226.358 315.53L222.142 313.916L226.379 312.282L227.993 308.065Z" fill="#1F2025"/>
</svg>
